<mxfile host="65bd71144e">
    <diagram id="2kvesDg9_dRM2Nm3YOvH" name="Page-1">
        <mxGraphModel dx="1431" dy="804" grid="1" gridSize="10" guides="1" tooltips="1" connect="1" arrows="1" fold="1" page="1" pageScale="1" pageWidth="850" pageHeight="1100" background="none" math="0" shadow="0">
            <root>
                <mxCell id="0"/>
                <mxCell id="1" parent="0"/>
                <mxCell id="6" value="" style="edgeStyle=none;html=1;fontColor=#000000;" edge="1" parent="1" source="2" target="5">
                    <mxGeometry relative="1" as="geometry"/>
                </mxCell>
                <mxCell id="2" value="&lt;h1&gt;Activity&lt;/h1&gt;&lt;h1&gt;Launched&lt;/h1&gt;" style="ellipse;whiteSpace=wrap;html=1;fillColor=#c61910;strokeColor=#b85450;verticalAlign=middle;gradientColor=#e62019;" vertex="1" parent="1">
                    <mxGeometry x="338" y="40" width="175" height="100" as="geometry"/>
                </mxCell>
                <mxCell id="9" value="" style="edgeStyle=none;html=1;fontColor=#1A1A1A;" edge="1" parent="1" source="5" target="7">
                    <mxGeometry relative="1" as="geometry"/>
                </mxCell>
                <mxCell id="5" value="&lt;h3&gt;&lt;font color=&quot;#1a1a1a&quot;&gt;onCreate()&lt;/font&gt;&lt;/h3&gt;" style="whiteSpace=wrap;html=1;fillColor=#fad7ac;strokeColor=#b46504;" vertex="1" parent="1">
                    <mxGeometry x="350" y="160" width="150" height="40" as="geometry"/>
                </mxCell>
                <mxCell id="11" value="" style="edgeStyle=none;html=1;fontColor=#1A1A1A;" edge="1" parent="1" source="7" target="10">
                    <mxGeometry relative="1" as="geometry"/>
                </mxCell>
                <mxCell id="7" value="&lt;h3&gt;&lt;font color=&quot;#1a1a1a&quot;&gt;onStart()&lt;/font&gt;&lt;/h3&gt;" style="whiteSpace=wrap;html=1;fillColor=#fad7ac;strokeColor=#b46504;" vertex="1" parent="1">
                    <mxGeometry x="350" y="240" width="150" height="40" as="geometry"/>
                </mxCell>
                <mxCell id="14" value="" style="edgeStyle=none;html=1;fontColor=#1A1A1A;" edge="1" parent="1" source="10" target="13">
                    <mxGeometry relative="1" as="geometry"/>
                </mxCell>
                <mxCell id="10" value="&lt;h3&gt;&lt;font color=&quot;#1a1a1a&quot;&gt;onResume()&lt;/font&gt;&lt;/h3&gt;" style="whiteSpace=wrap;html=1;fillColor=#fad7ac;strokeColor=#b46504;" vertex="1" parent="1">
                    <mxGeometry x="350" y="320" width="150" height="40" as="geometry"/>
                </mxCell>
                <mxCell id="17" style="edgeStyle=none;html=1;fontColor=#000000;" edge="1" parent="1" source="13" target="16">
                    <mxGeometry relative="1" as="geometry"/>
                </mxCell>
                <mxCell id="13" value="&lt;h1&gt;&lt;font color=&quot;#000000&quot;&gt;Activity&lt;/font&gt;&lt;/h1&gt;&lt;h1&gt;&lt;font color=&quot;#000000&quot;&gt;Running&lt;/font&gt;&lt;/h1&gt;" style="ellipse;whiteSpace=wrap;html=1;fillColor=#2677e8;strokeColor=#6c8ebf;verticalAlign=middle;gradientColor=#2475f0;" vertex="1" parent="1">
                    <mxGeometry x="338" y="410" width="175" height="100" as="geometry"/>
                </mxCell>
                <mxCell id="21" value="" style="edgeStyle=none;html=1;fontColor=#000000;" edge="1" parent="1" source="16" target="18">
                    <mxGeometry relative="1" as="geometry"/>
                </mxCell>
                <mxCell id="23" style="edgeStyle=none;html=1;fontColor=#000000;" edge="1" parent="1" source="18" target="22">
                    <mxGeometry relative="1" as="geometry"/>
                </mxCell>
                <mxCell id="18" value="&lt;h3&gt;&lt;font color=&quot;#1a1a1a&quot;&gt;onStop()&lt;/font&gt;&lt;/h3&gt;" style="whiteSpace=wrap;html=1;fillColor=#fad7ac;strokeColor=#b46504;" vertex="1" parent="1">
                    <mxGeometry x="350" y="760" width="150" height="40" as="geometry"/>
                </mxCell>
                <mxCell id="40" value="" style="edgeStyle=none;html=1;fontColor=#000000;" edge="1" parent="1" source="22" target="39">
                    <mxGeometry relative="1" as="geometry"/>
                </mxCell>
                <mxCell id="22" value="&lt;h3&gt;&lt;font color=&quot;#1a1a1a&quot;&gt;onDestroy()&lt;/font&gt;&lt;/h3&gt;" style="whiteSpace=wrap;html=1;fillColor=#fad7ac;strokeColor=#b46504;" vertex="1" parent="1">
                    <mxGeometry x="350" y="880" width="150" height="40" as="geometry"/>
                </mxCell>
                <mxCell id="39" value="&lt;h1&gt;&lt;font color=&quot;#ffffff&quot;&gt;Activity&lt;/font&gt;&lt;/h1&gt;&lt;h1&gt;&lt;font color=&quot;#ffffff&quot;&gt;Shutdown&lt;/font&gt;&lt;/h1&gt;" style="ellipse;whiteSpace=wrap;html=1;fillColor=#ea160b;strokeColor=#b85450;verticalAlign=middle;gradientColor=#e6110a;" vertex="1" parent="1">
                    <mxGeometry x="338" y="970" width="175" height="100" as="geometry"/>
                </mxCell>
                <mxCell id="43" value="" style="edgeStyle=none;html=1;fontColor=#FFFFFF;entryX=1;entryY=0.5;entryDx=0;entryDy=0;" edge="1" parent="1" source="41" target="7">
                    <mxGeometry relative="1" as="geometry"/>
                </mxCell>
                <mxCell id="41" value="&lt;h3&gt;&lt;font color=&quot;#1a1a1a&quot;&gt;onRestart()&lt;/font&gt;&lt;/h3&gt;" style="whiteSpace=wrap;html=1;fillColor=#fad7ac;strokeColor=#b46504;" vertex="1" parent="1">
                    <mxGeometry x="700" y="240" width="150" height="40" as="geometry"/>
                </mxCell>
                <mxCell id="42" value="" style="endArrow=classic;html=1;fontColor=#FFFFFF;exitX=1;exitY=0.5;exitDx=0;exitDy=0;entryX=0.5;entryY=1;entryDx=0;entryDy=0;" edge="1" parent="1" source="18" target="41">
                    <mxGeometry width="50" height="50" relative="1" as="geometry">
                        <mxPoint x="660" y="570" as="sourcePoint"/>
                        <mxPoint x="660" y="370" as="targetPoint"/>
                        <Array as="points">
                            <mxPoint x="775" y="780"/>
                        </Array>
                    </mxGeometry>
                </mxCell>
                <mxCell id="44" value="" style="endArrow=classic;html=1;fontColor=#FFFFFF;entryX=1;entryY=0.5;entryDx=0;entryDy=0;" edge="1" parent="1" target="10">
                    <mxGeometry width="50" height="50" relative="1" as="geometry">
                        <mxPoint x="230" y="660" as="sourcePoint"/>
                        <mxPoint x="785" y="370" as="targetPoint"/>
                        <Array as="points">
                            <mxPoint x="680" y="660"/>
                            <mxPoint x="680" y="340"/>
                        </Array>
                    </mxGeometry>
                </mxCell>
                <mxCell id="16" value="&lt;h3&gt;&lt;font color=&quot;#1a1a1a&quot;&gt;onPause()&lt;/font&gt;&lt;/h3&gt;" style="whiteSpace=wrap;html=1;fillColor=#fad7ac;strokeColor=#b46504;" vertex="1" parent="1">
                    <mxGeometry x="350" y="640" width="150" height="40" as="geometry"/>
                </mxCell>
                <mxCell id="46" value="&lt;font style=&quot;font-size: 16px;&quot;&gt;User navigates&lt;br&gt;to the Activity&lt;/font&gt;" style="rounded=0;whiteSpace=wrap;html=1;fontColor=#FFFFFF;fillColor=#18141D;gradientColor=#18141D;strokeColor=none;" vertex="1" parent="1">
                    <mxGeometry x="700" y="690" width="135" height="60" as="geometry"/>
                </mxCell>
            </root>
        </mxGraphModel>
    </diagram>
</mxfile>